<svg xmlns="http://www.w3.org/2000/svg" xmlns:xlink="http://www.w3.org/1999/xlink" version="1.1" width="256" height="256" viewBox="0 0 256 256" xml:space="preserve">

<defs>
</defs>
<g style="stroke: none; stroke-width: 0; stroke-dasharray: none; stroke-linecap: butt; stroke-linejoin: miter; stroke-miterlimit: 10; fill: none; fill-rule: nonzero; opacity: 1;" transform="translate(1.4065934065934016 1.4065934065934016) scale(2.81 2.81)" >
	<path d="M 80.906 9.667 c 0.68 0 1.235 -0.628 1.125 -1.331 c -0.607 -3.9 -3.837 -6.877 -7.731 -6.877 h -5.667 l -6.05 8.208 H 80.906 z" style="stroke: none; stroke-width: 1; stroke-dasharray: none; stroke-linecap: butt; stroke-linejoin: miter; stroke-miterlimit: 10; fill: rgb(179,198,193); fill-rule: nonzero; opacity: 1;" transform=" matrix(1 0 0 1 0 0) " stroke-linecap="round" />
	<path d="M 66.027 77.189 V 53.042 V 9.465 c 0 -4.423 3.586 -8.009 8.009 -8.009 H 23.682 h 0 c -4.423 0 -8.009 3.586 -8.009 8.009 v 43.577 v 24.147 H 66.027 z" style="stroke: none; stroke-width: 1; stroke-dasharray: none; stroke-linecap: butt; stroke-linejoin: miter; stroke-miterlimit: 10; fill: rgb(211,237,229); fill-rule: nonzero; opacity: 1;" transform=" matrix(1 0 0 1 0 0) " stroke-linecap="round" />
	<path d="M 15.732 77.937" style="stroke: none; stroke-width: 1; stroke-dasharray: none; stroke-linecap: butt; stroke-linejoin: miter; stroke-miterlimit: 10; fill: rgb(190,201,208); fill-rule: nonzero; opacity: 1;" transform=" matrix(1 0 0 1 0 0) " stroke-linecap="round" />
	<path d="M 29.925 17.385 h -8.16 c -0.552 0 -1 -0.448 -1 -1 s 0.448 -1 1 -1 h 8.16 c 0.552 0 1 0.448 1 1 S 30.478 17.385 29.925 17.385 z" style="stroke: none; stroke-width: 1; stroke-dasharray: none; stroke-linecap: butt; stroke-linejoin: miter; stroke-miterlimit: 10; fill: rgb(179,198,193); fill-rule: nonzero; opacity: 1;" transform=" matrix(1 0 0 1 0 0) " stroke-linecap="round" />
	<path d="M 59.67 17.385 H 37.336 c -0.552 0 -1 -0.448 -1 -1 s 0.448 -1 1 -1 H 59.67 c 0.553 0 1 0.448 1 1 S 60.223 17.385 59.67 17.385 z" style="stroke: none; stroke-width: 1; stroke-dasharray: none; stroke-linecap: butt; stroke-linejoin: miter; stroke-miterlimit: 10; fill: rgb(179,198,193); fill-rule: nonzero; opacity: 1;" transform=" matrix(1 0 0 1 0 0) " stroke-linecap="round" />
	<path d="M 59.67 27.573 H 21.766 c -0.552 0 -1 -0.448 -1 -1 s 0.448 -1 1 -1 H 59.67 c 0.553 0 1 0.448 1 1 S 60.223 27.573 59.67 27.573 z" style="stroke: none; stroke-width: 1; stroke-dasharray: none; stroke-linecap: butt; stroke-linejoin: miter; stroke-miterlimit: 10; fill: rgb(179,198,193); fill-rule: nonzero; opacity: 1;" transform=" matrix(1 0 0 1 0 0) " stroke-linecap="round" />
	<path d="M 59.67 37.157 H 42.183 c -0.552 0 -1 -0.448 -1 -1 s 0.448 -1 1 -1 H 59.67 c 0.553 0 1 0.448 1 1 S 60.223 37.157 59.67 37.157 z" style="stroke: none; stroke-width: 1; stroke-dasharray: none; stroke-linecap: butt; stroke-linejoin: miter; stroke-miterlimit: 10; fill: rgb(179,198,193); fill-rule: nonzero; opacity: 1;" transform=" matrix(1 0 0 1 0 0) " stroke-linecap="round" />
	<rect x="10.13" y="46.28" rx="0" ry="0" width="58.9" height="28.1" style="stroke: none; stroke-width: 1; stroke-dasharray: none; stroke-linecap: butt; stroke-linejoin: miter; stroke-miterlimit: 10; fill: rgb(114,228,160); fill-rule: nonzero; opacity: 1;" transform=" matrix(0.8624 0.5062 -0.5062 0.8624 35.9833 -11.7372) "/>
	<path d="M 27.428 36.901 c -1.987 3.385 -6.341 4.518 -9.726 2.532 l 3.597 -6.129 L 27.428 36.901 z" style="stroke: none; stroke-width: 1; stroke-dasharray: none; stroke-linecap: butt; stroke-linejoin: miter; stroke-miterlimit: 10; fill: rgb(36,211,181); fill-rule: nonzero; opacity: 1;" transform=" matrix(1 0 0 1 0 0) " stroke-linecap="round" />
	<polygon points="65.04,58.98 59.23,55.57 14.94,44.15 7.07,57.54 48.4,81.8 58.48,84.4 " style="stroke: none; stroke-width: 1; stroke-dasharray: none; stroke-linecap: butt; stroke-linejoin: miter; stroke-miterlimit: 10; fill: rgb(102,213,147); fill-rule: nonzero; opacity: 1;" transform="  matrix(1 0 0 1 0 0) "/>
	<rect x="4.03" y="52.39" rx="0" ry="0" width="58.9" height="28.1" style="stroke: none; stroke-width: 1; stroke-dasharray: none; stroke-linecap: butt; stroke-linejoin: miter; stroke-miterlimit: 10; fill: rgb(114,228,160); fill-rule: nonzero; opacity: 1;" transform=" matrix(0.9683 0.2497 -0.2497 0.9683 17.6467 -6.2537) "/>
	<path d="M 15.349 47.253 c -0.98 3.8 -4.855 6.087 -8.655 5.107 l 1.774 -6.881 L 15.349 47.253 z" style="stroke: none; stroke-width: 1; stroke-dasharray: none; stroke-linecap: butt; stroke-linejoin: miter; stroke-miterlimit: 10; fill: rgb(36,211,181); fill-rule: nonzero; opacity: 1;" transform=" matrix(1 0 0 1 0 0) " stroke-linecap="round" />
	<polygon points="58.9,58.48 54.86,57.44 5.38,57.44 1.45,72.69 51.3,85.54 58.9,85.54 " style="stroke: none; stroke-width: 1; stroke-dasharray: none; stroke-linecap: butt; stroke-linejoin: miter; stroke-miterlimit: 10; fill: rgb(102,213,147); fill-rule: nonzero; opacity: 1;" transform="  matrix(1 0 0 1 0 0) "/>
	<rect x="0" y="60.44" rx="0" ry="0" width="58.9" height="28.1" style="stroke: none; stroke-width: 1; stroke-dasharray: none; stroke-linecap: butt; stroke-linejoin: miter; stroke-miterlimit: 10; fill: rgb(114,228,160); fill-rule: nonzero; opacity: 1;" transform=" matrix(1 0 0 1 0 0) "/>
	<circle cx="29.445999999999998" cy="74.496" r="9.176" style="stroke: none; stroke-width: 1; stroke-dasharray: none; stroke-linecap: butt; stroke-linejoin: miter; stroke-miterlimit: 10; fill: rgb(36,211,181); fill-rule: nonzero; opacity: 1;" transform="  matrix(1 0 0 1 0 0) "/>
	<path d="M 29.382 80.022 c -1.3 0 -2.526 -0.795 -3.009 -2.082 c -0.194 -0.518 0.068 -1.094 0.585 -1.288 c 0.516 -0.191 1.094 0.068 1.287 0.585 c 0.234 0.624 0.932 0.943 1.559 0.708 c 0.625 -0.234 0.942 -0.934 0.708 -1.559 c -0.134 -0.357 -0.422 -0.625 -0.792 -0.732 l -1.167 -0.425 c -0.917 -0.268 -1.682 -0.979 -2.04 -1.93 c -0.301 -0.804 -0.271 -1.676 0.083 -2.457 c 0.355 -0.78 0.993 -1.376 1.796 -1.677 c 0.802 -0.302 1.674 -0.271 2.455 0.083 c 0.781 0.355 1.377 0.993 1.678 1.796 c 0.194 0.517 -0.068 1.093 -0.585 1.287 c -0.518 0.192 -1.094 -0.067 -1.288 -0.586 c -0.113 -0.302 -0.338 -0.542 -0.632 -0.676 c -0.295 -0.133 -0.622 -0.144 -0.926 -0.031 c -0.303 0.113 -0.543 0.338 -0.677 0.632 c -0.134 0.294 -0.146 0.623 -0.032 0.927 c 0.134 0.356 0.423 0.624 0.793 0.733 l 1.166 0.424 c 0.917 0.267 1.683 0.978 2.04 1.931 c 0.621 1.657 -0.222 3.511 -1.879 4.133 C 30.136 79.957 29.756 80.022 29.382 80.022 z" style="stroke: none; stroke-width: 1; stroke-dasharray: none; stroke-linecap: butt; stroke-linejoin: miter; stroke-miterlimit: 10; fill: rgb(211,237,229); fill-rule: nonzero; opacity: 1;" transform=" matrix(1 0 0 1 0 0) " stroke-linecap="round" />
	<path d="M 29.449 70.964 c -0.552 0 -1 -0.447 -1 -1 v -1.235 c 0 -0.553 0.448 -1 1 -1 s 1 0.447 1 1 v 1.235 C 30.449 70.517 30.001 70.964 29.449 70.964 z" style="stroke: none; stroke-width: 1; stroke-dasharray: none; stroke-linecap: butt; stroke-linejoin: miter; stroke-miterlimit: 10; fill: rgb(211,237,229); fill-rule: nonzero; opacity: 1;" transform=" matrix(1 0 0 1 0 0) " stroke-linecap="round" />
	<path d="M 29.449 81.256 c -0.552 0 -1 -0.447 -1 -1 v -1.235 c 0 -0.553 0.448 -1 1 -1 s 1 0.447 1 1 v 1.235 C 30.449 80.809 30.001 81.256 29.449 81.256 z" style="stroke: none; stroke-width: 1; stroke-dasharray: none; stroke-linecap: butt; stroke-linejoin: miter; stroke-miterlimit: 10; fill: rgb(211,237,229); fill-rule: nonzero; opacity: 1;" transform=" matrix(1 0 0 1 0 0) " stroke-linecap="round" />
	<path d="M 51.792 60.44 c 0 3.925 3.182 7.106 7.106 7.106 l 0 -7.106 L 51.792 60.44 z" style="stroke: none; stroke-width: 1; stroke-dasharray: none; stroke-linecap: butt; stroke-linejoin: miter; stroke-miterlimit: 10; fill: rgb(49,151,140); fill-rule: nonzero; opacity: 1;" transform=" matrix(1 0 0 1 0 0) " stroke-linecap="round" />
	<path d="M 7.106 60.44 c 0 3.925 -3.182 7.106 -7.106 7.106 l 0 -7.106 L 7.106 60.44 z" style="stroke: none; stroke-width: 1; stroke-dasharray: none; stroke-linecap: butt; stroke-linejoin: miter; stroke-miterlimit: 10; fill: rgb(36,211,181); fill-rule: nonzero; opacity: 1;" transform=" matrix(1 0 0 1 0 0) " stroke-linecap="round" />
	<path d="M 51.792 88.544 c 0 -3.925 3.182 -7.106 7.106 -7.106 l 0 7.106 L 51.792 88.544 z" style="stroke: none; stroke-width: 1; stroke-dasharray: none; stroke-linecap: butt; stroke-linejoin: miter; stroke-miterlimit: 10; fill: rgb(49,151,140); fill-rule: nonzero; opacity: 1;" transform=" matrix(1 0 0 1 0 0) " stroke-linecap="round" />
	<path d="M 7.106 88.544 c 0 -3.925 -3.182 -7.106 -7.106 -7.106 l 0 7.106 L 7.106 88.544 z" style="stroke: none; stroke-width: 1; stroke-dasharray: none; stroke-linecap: butt; stroke-linejoin: miter; stroke-miterlimit: 10; fill: rgb(36,211,181); fill-rule: nonzero; opacity: 1;" transform=" matrix(1 0 0 1 0 0) " stroke-linecap="round" />
	<path d="M 76.48 82.154 H 51.853 c -0.611 0 -1.106 0.854 -1.106 1.908 v 2.467 l 0 0 c 0 1.09 0.512 1.974 1.144 1.974 h 24.551 c 0.632 0 1.144 -0.884 1.144 -1.974 l 0 0 v -2.467 C 77.586 83.008 77.091 82.154 76.48 82.154 z" style="stroke: none; stroke-width: 1; stroke-dasharray: none; stroke-linecap: butt; stroke-linejoin: miter; stroke-miterlimit: 10; fill: rgb(252,198,69); fill-rule: nonzero; opacity: 1;" transform=" matrix(1 0 0 1 0 0) " stroke-linecap="round" />
	<path d="M 76.48 75.805 H 51.853 c -0.611 0 -1.106 0.854 -1.106 1.908 v 2.467 c 0 1.09 0.512 1.974 1.144 1.974 h 24.551 c 0.632 0 1.144 -0.884 1.144 -1.974 v -2.467 C 77.586 76.659 77.091 75.805 76.48 75.805 z" style="stroke: none; stroke-width: 1; stroke-dasharray: none; stroke-linecap: butt; stroke-linejoin: miter; stroke-miterlimit: 10; fill: rgb(255,211,108); fill-rule: nonzero; opacity: 1;" transform=" matrix(1 0 0 1 0 0) " stroke-linecap="round" />
	<path d="M 76.48 69.456 H 51.853 c -0.611 0 -1.106 0.854 -1.106 1.908 v 2.467 c 0 1.09 0.512 1.974 1.144 1.974 h 24.551 c 0.632 0 1.144 -0.884 1.144 -1.974 v -2.467 C 77.586 70.31 77.091 69.456 76.48 69.456 z" style="stroke: none; stroke-width: 1; stroke-dasharray: none; stroke-linecap: butt; stroke-linejoin: miter; stroke-miterlimit: 10; fill: rgb(252,198,69); fill-rule: nonzero; opacity: 1;" transform=" matrix(1 0 0 1 0 0) " stroke-linecap="round" />
	<path d="M 76.48 63.107 H 51.853 c -0.611 0 -1.106 0.854 -1.106 1.908 v 2.467 c 0 1.09 0.512 1.974 1.144 1.974 h 24.551 c 0.632 0 1.144 -0.884 1.144 -1.974 v -2.467 C 77.586 63.961 77.091 63.107 76.48 63.107 z" style="stroke: none; stroke-width: 1; stroke-dasharray: none; stroke-linecap: butt; stroke-linejoin: miter; stroke-miterlimit: 10; fill: rgb(255,211,108); fill-rule: nonzero; opacity: 1;" transform=" matrix(1 0 0 1 0 0) " stroke-linecap="round" />
	<path d="M 76.48 56.758 H 51.853 c -0.611 0 -1.106 0.854 -1.106 1.908 v 2.467 c 0 1.09 0.512 1.974 1.144 1.974 h 24.551 c 0.632 0 1.144 -0.884 1.144 -1.974 v -2.467 C 77.586 57.612 77.091 56.758 76.48 56.758 z" style="stroke: none; stroke-width: 1; stroke-dasharray: none; stroke-linecap: butt; stroke-linejoin: miter; stroke-miterlimit: 10; fill: rgb(252,198,69); fill-rule: nonzero; opacity: 1;" transform=" matrix(1 0 0 1 0 0) " stroke-linecap="round" />
	<path d="M 76.48 50.409 H 51.853 c -0.611 0 -1.106 0.854 -1.106 1.908 v 2.467 l 0 0 c 0 1.09 0.512 1.974 1.144 1.974 h 24.551 c 0.632 0 1.144 -0.884 1.144 -1.974 l 0 0 v -2.467 C 77.586 51.264 77.091 50.409 76.48 50.409 z" style="stroke: none; stroke-width: 1; stroke-dasharray: none; stroke-linecap: butt; stroke-linejoin: miter; stroke-miterlimit: 10; fill: rgb(255,211,108); fill-rule: nonzero; opacity: 1;" transform=" matrix(1 0 0 1 0 0) " stroke-linecap="round" />
	<path d="M 76.48 44.06 H 51.853 c -0.611 0 -1.106 0.854 -1.106 1.908 v 2.467 c 0 1.09 0.512 1.974 1.144 1.974 h 24.551 c 0.632 0 1.144 -0.884 1.144 -1.974 v -2.467 C 77.586 44.915 77.091 44.06 76.48 44.06 z" style="stroke: none; stroke-width: 1; stroke-dasharray: none; stroke-linecap: butt; stroke-linejoin: miter; stroke-miterlimit: 10; fill: rgb(252,198,69); fill-rule: nonzero; opacity: 1;" transform=" matrix(1 0 0 1 0 0) " stroke-linecap="round" />
	<circle cx="75.631" cy="74.17099999999999" r="14.371" style="stroke: none; stroke-width: 1; stroke-dasharray: none; stroke-linecap: butt; stroke-linejoin: miter; stroke-miterlimit: 10; fill: rgb(234,175,32); fill-rule: nonzero; opacity: 1;" transform="  matrix(1 0 0 1 0 0) "/>
	<circle cx="75.626" cy="74.176" r="9.566" style="stroke: none; stroke-width: 1; stroke-dasharray: none; stroke-linecap: butt; stroke-linejoin: miter; stroke-miterlimit: 10; fill: rgb(255,211,108); fill-rule: nonzero; opacity: 1;" transform="  matrix(1 0 0 1 0 0) "/>
	<path d="M 75.551 80.079 c -0.478 0 -0.953 -0.102 -1.401 -0.306 c -0.825 -0.374 -1.455 -1.048 -1.773 -1.897 c -0.193 -0.517 0.068 -1.093 0.586 -1.287 c 0.513 -0.192 1.094 0.067 1.287 0.586 c 0.131 0.348 0.389 0.624 0.728 0.778 s 0.717 0.168 1.065 0.035 c 0.349 -0.131 0.625 -0.389 0.779 -0.728 c 0.153 -0.338 0.166 -0.716 0.035 -1.064 c -0.154 -0.412 -0.486 -0.72 -0.91 -0.844 l -1.258 -0.458 c -0.973 -0.284 -1.782 -1.036 -2.159 -2.042 c -0.318 -0.848 -0.286 -1.77 0.089 -2.595 s 1.049 -1.454 1.897 -1.772 c 0.847 -0.318 1.77 -0.287 2.595 0.089 c 0.825 0.375 1.454 1.049 1.772 1.897 c 0.193 0.517 -0.068 1.093 -0.586 1.287 c -0.514 0.192 -1.094 -0.067 -1.287 -0.586 c -0.131 -0.348 -0.389 -0.624 -0.728 -0.778 c -0.338 -0.154 -0.717 -0.166 -1.065 -0.036 c -0.348 0.131 -0.624 0.389 -0.778 0.728 s -0.167 0.717 -0.036 1.065 c 0.154 0.411 0.486 0.719 0.912 0.845 l 1.257 0.457 c 0.972 0.283 1.781 1.034 2.158 2.041 c 0.318 0.848 0.287 1.77 -0.088 2.595 c -0.375 0.824 -1.049 1.454 -1.897 1.772 C 76.356 80.007 75.953 80.079 75.551 80.079 z" style="stroke: none; stroke-width: 1; stroke-dasharray: none; stroke-linecap: butt; stroke-linejoin: miter; stroke-miterlimit: 10; fill: rgb(211,155,30); fill-rule: nonzero; opacity: 1;" transform=" matrix(1 0 0 1 0 0) " stroke-linecap="round" />
	<path d="M 75.63 70.272 c -0.553 0 -1 -0.447 -1 -1 v -1.338 c 0 -0.553 0.447 -1 1 -1 s 1 0.447 1 1 v 1.338 C 76.63 69.825 76.183 70.272 75.63 70.272 z" style="stroke: none; stroke-width: 1; stroke-dasharray: none; stroke-linecap: butt; stroke-linejoin: miter; stroke-miterlimit: 10; fill: rgb(211,155,30); fill-rule: nonzero; opacity: 1;" transform=" matrix(1 0 0 1 0 0) " stroke-linecap="round" />
	<path d="M 75.63 81.412 c -0.553 0 -1 -0.447 -1 -1 v -1.337 c 0 -0.553 0.447 -1 1 -1 s 1 0.447 1 1 v 1.337 C 76.63 80.965 76.183 81.412 75.63 81.412 z" style="stroke: none; stroke-width: 1; stroke-dasharray: none; stroke-linecap: butt; stroke-linejoin: miter; stroke-miterlimit: 10; fill: rgb(211,155,30); fill-rule: nonzero; opacity: 1;" transform=" matrix(1 0 0 1 0 0) " stroke-linecap="round" />
	<path d="M 25.845 21.465 c -0.552 0 -1 -0.448 -1 -1 v -8.16 c 0 -0.552 0.448 -1 1 -1 s 1 0.448 1 1 v 8.16 C 26.845 21.017 26.397 21.465 25.845 21.465 z" style="stroke: none; stroke-width: 1; stroke-dasharray: none; stroke-linecap: butt; stroke-linejoin: miter; stroke-miterlimit: 10; fill: rgb(179,198,193); fill-rule: nonzero; opacity: 1;" transform=" matrix(1 0 0 1 0 0) " stroke-linecap="round" />
</g>
</svg>